<svg width="195" height="131" viewBox="0 0 195 131" fill="none" xmlns="http://www.w3.org/2000/svg">
<path d="M125.952 8.93066C128.623 8.40199 131.377 8.40199 134.048 8.93066L133.902 9.66699H133.901C136.435 10.1684 138.89 11.163 141.112 12.6514H141.113L141.53 12.0283C142.501 12.6785 143.429 13.419 144.302 14.25L144.673 14.6113L146.967 16.9062L146.437 17.4365L151.026 22.0264L151.557 21.4961L156.146 26.0859L155.616 26.6162L160.205 31.2051L160.735 30.6748L165.325 35.2646L164.795 35.7949L169.384 40.3838L169.914 39.8535L174.504 44.4434L173.974 44.9736L178.563 49.5635L179.094 49.0332L181.389 51.3271C182.368 52.3063 183.229 53.3601 183.972 54.4697L183.349 54.8867H183.348C184.836 57.1093 185.83 59.5643 186.332 62.0977L187.069 61.9521C187.598 64.6228 187.598 67.3772 187.069 70.0479L186.333 69.9023L186.332 69.9014C185.831 72.4348 184.836 74.8896 183.348 77.1123L183.349 77.1133L183.972 77.5303C183.229 78.6399 182.368 79.6937 181.389 80.6729L179.094 82.9668L178.563 82.4365L173.974 87.0264L174.504 87.5566L169.914 92.1465L169.384 91.6162L164.795 96.2051L165.325 96.7354L160.735 101.325L160.205 100.795L155.616 105.384L156.146 105.914L151.557 110.504L151.026 109.974L146.437 114.563L146.967 115.094L144.673 117.389C143.694 118.368 142.64 119.229 141.53 119.972L141.113 119.349L141.112 119.348C138.89 120.836 136.435 121.831 133.901 122.332L133.902 122.333L134.048 123.069C131.377 123.598 128.623 123.598 125.952 123.069L126.098 122.333V122.332C123.564 121.83 121.109 120.836 118.887 119.348V119.349L118.47 119.972C117.499 119.321 116.571 118.581 115.698 117.75L115.327 117.389L113.033 115.094L113.563 114.563L108.974 109.974L108.443 110.504L103.854 105.914L104.384 105.384L99.7949 100.795L99.2646 101.325L94.6748 96.7354L95.2051 96.2051L90.6162 91.6162L90.0859 92.1465L85.4961 87.5566L86.0264 87.0264L81.4365 82.4365L80.9062 82.9668L78.6113 80.6729C77.6321 79.6937 76.7714 78.6399 76.0283 77.5303L76.6514 77.1133V77.1123C75.163 74.8897 74.1684 72.4347 73.667 69.9014V69.9023L72.9307 70.0479C72.402 67.3772 72.402 64.6228 72.9307 61.9521L73.667 62.0977C74.1685 59.5644 75.1629 57.1092 76.6514 54.8867L76.0283 54.4697C76.7714 53.3601 77.6321 52.3063 78.6113 51.3271L80.9062 49.0332L81.4365 49.5635L86.0264 44.9736L85.4961 44.4434L90.0859 39.8535L90.6162 40.3838L95.2051 35.7949L94.6748 35.2646L99.2646 30.6748L99.7949 31.2051L104.384 26.6162L103.854 26.0859L108.443 21.4961L108.974 22.0264L113.563 17.4365L113.033 16.9062L115.327 14.6113C116.306 13.6321 117.36 12.7714 118.47 12.0283L118.887 12.6514C121.109 11.1629 123.564 10.1685 126.098 9.66699L125.952 8.93066Z" stroke="#D7FF94" stroke-opacity="0.5" stroke-width="1.5" stroke-dasharray="7 7"/>
<path d="M51.3887 14.6729C58.9063 7.15533 71.0937 7.15532 78.6113 14.6729L115.327 51.3887C122.845 58.9063 122.845 71.0937 115.327 78.6113L78.6113 115.327C71.0937 122.845 58.9063 122.845 51.3887 115.327L14.6729 78.6113C7.15533 71.0937 7.15532 58.9063 14.6729 51.3887L51.3887 14.6729Z" fill="black" stroke="#D7FF94" stroke-width="1.5"/>
<path d="M68.0625 39.5625C68.0625 38.6177 67.6872 37.7115 67.0191 37.0434C66.351 36.3753 65.4448 36 64.5 36C63.5552 36 62.649 36.3753 61.9809 37.0434C61.3128 37.7115 60.9375 38.6177 60.9375 39.5625V43.125C60.9375 44.0698 61.3128 44.976 61.9809 45.6441C62.649 46.3122 63.5552 46.6875 64.5 46.6875C65.4448 46.6875 66.351 46.3122 67.0191 45.6441C67.6872 44.976 68.0625 44.0698 68.0625 43.125V39.5625ZM84.6531 49.3843C85.302 48.7124 85.6611 47.8125 85.653 46.8784C85.6448 45.9444 85.2702 45.0508 84.6097 44.3903C83.9492 43.7298 83.0556 43.3552 82.1216 43.347C81.1875 43.3389 80.2876 43.698 79.6157 44.3469L77.097 46.8656C76.4481 47.5375 76.089 48.4374 76.0971 49.3715C76.1052 50.3056 76.4799 51.1991 77.1404 51.8596C77.8009 52.5201 78.6944 52.8948 79.6285 52.9029C80.5626 52.911 81.4625 52.5519 82.1344 51.903L84.6531 49.3843ZM93 64.5C93 65.4448 92.6247 66.351 91.9566 67.0191C91.2885 67.6872 90.3823 68.0625 89.4375 68.0625H85.875C84.9302 68.0625 84.024 67.6872 83.3559 67.0191C82.6878 66.351 82.3125 65.4448 82.3125 64.5C82.3125 63.5552 82.6878 62.649 83.3559 61.9809C84.024 61.3128 84.9302 60.9375 85.875 60.9375H89.4375C90.3823 60.9375 91.2885 61.3128 91.9566 61.9809C92.6247 62.649 93 63.5552 93 64.5ZM46.8656 51.903C47.1943 52.2433 47.5874 52.5147 48.022 52.7014C48.4566 52.8881 48.9241 52.9863 49.3971 52.9905C49.8702 52.9946 50.3393 52.9044 50.7771 52.7253C51.2149 52.5462 51.6127 52.2817 51.9472 51.9472C52.2817 51.6127 52.5462 51.2149 52.7253 50.7771C52.9044 50.3393 52.9946 49.8702 52.9905 49.3971C52.9863 48.9241 52.8881 48.4566 52.7014 48.022C52.5147 47.5874 52.2433 47.1943 51.903 46.8656L49.3843 44.3469C48.7124 43.698 47.8125 43.3389 46.8784 43.347C45.9444 43.3552 45.0508 43.7298 44.3903 44.3903C43.7298 45.0508 43.3552 45.9444 43.347 46.8784C43.3389 47.8125 43.698 48.7124 44.3469 49.3843L46.8656 51.903ZM46.6875 64.5C46.6875 65.4448 46.3122 66.351 45.6441 67.0191C44.976 67.6872 44.0698 68.0625 43.125 68.0625H39.5625C38.6177 68.0625 37.7115 67.6872 37.0434 67.0191C36.3753 66.351 36 65.4448 36 64.5C36 63.5552 36.3753 62.649 37.0434 61.9809C37.7115 61.3128 38.6177 60.9375 39.5625 60.9375H43.125C44.0698 60.9375 44.976 61.3128 45.6441 61.9809C46.3122 62.649 46.6875 63.5552 46.6875 64.5ZM57.375 85.875V82.3125H71.625V85.875C71.625 87.7647 70.8743 89.5769 69.5381 90.9131C68.2019 92.2493 66.3897 93 64.5 93C62.6103 93 60.7981 92.2493 59.4619 90.9131C58.1257 89.5769 57.375 87.7647 57.375 85.875ZM71.625 78.75C71.6784 77.5387 72.366 76.4486 73.3243 75.6898C75.6495 73.856 77.3456 71.3434 78.1769 68.5012C79.0083 65.659 78.9335 62.6285 77.963 59.8307C76.9925 57.033 75.1746 54.6071 72.7618 52.8902C70.349 51.1734 67.4613 50.2508 64.5 50.2508C61.5387 50.2508 58.651 51.1734 56.2382 52.8902C53.8254 54.6071 52.0075 57.033 51.037 59.8307C50.0665 62.6285 49.9917 65.659 50.8231 68.5012C51.6544 71.3434 53.3505 73.856 55.6757 75.6898C56.6376 76.4486 57.3216 77.5387 57.3714 78.75H71.625Z" fill="#D7FF94"/>
</svg>
