<svg width="195" height="131" viewBox="0 0 195 131" fill="none" xmlns="http://www.w3.org/2000/svg">
<path d="M125.952 8.93066C128.623 8.40199 131.377 8.40199 134.048 8.93066L133.902 9.66699H133.901C136.435 10.1684 138.89 11.163 141.112 12.6514H141.113L141.53 12.0283C142.501 12.6785 143.429 13.419 144.302 14.25L144.673 14.6113L146.967 16.9062L146.437 17.4365L151.026 22.0264L151.557 21.4961L156.146 26.0859L155.616 26.6162L160.205 31.2051L160.735 30.6748L165.325 35.2646L164.795 35.7949L169.384 40.3838L169.914 39.8535L174.504 44.4434L173.974 44.9736L178.563 49.5635L179.094 49.0332L181.389 51.3271C182.368 52.3063 183.229 53.3601 183.972 54.4697L183.349 54.8867H183.348C184.836 57.1093 185.83 59.5643 186.332 62.0977L187.069 61.9521C187.598 64.6228 187.598 67.3772 187.069 70.0479L186.333 69.9023L186.332 69.9014C185.831 72.4348 184.836 74.8896 183.348 77.1123L183.349 77.1133L183.972 77.5303C183.229 78.6399 182.368 79.6937 181.389 80.6729L179.094 82.9668L178.563 82.4365L173.974 87.0264L174.504 87.5566L169.914 92.1465L169.384 91.6162L164.795 96.2051L165.325 96.7354L160.735 101.325L160.205 100.795L155.616 105.384L156.146 105.914L151.557 110.504L151.026 109.974L146.437 114.563L146.967 115.094L144.673 117.389C143.694 118.368 142.64 119.229 141.53 119.972L141.113 119.349L141.112 119.348C138.89 120.836 136.435 121.831 133.901 122.332L133.902 122.333L134.048 123.069C131.377 123.598 128.623 123.598 125.952 123.069L126.098 122.333V122.332C123.564 121.83 121.109 120.836 118.887 119.348V119.349L118.47 119.972C117.499 119.321 116.571 118.581 115.698 117.75L115.327 117.389L113.033 115.094L113.563 114.563L108.974 109.974L108.443 110.504L103.854 105.914L104.384 105.384L99.7949 100.795L99.2646 101.325L94.6748 96.7354L95.2051 96.2051L90.6162 91.6162L90.0859 92.1465L85.4961 87.5566L86.0264 87.0264L81.4365 82.4365L80.9062 82.9668L78.6113 80.6729C77.6321 79.6937 76.7714 78.6399 76.0283 77.5303L76.6514 77.1133V77.1123C75.163 74.8897 74.1684 72.4347 73.667 69.9014V69.9023L72.9307 70.0479C72.402 67.3772 72.402 64.6228 72.9307 61.9521L73.667 62.0977C74.1685 59.5644 75.1629 57.1092 76.6514 54.8867L76.0283 54.4697C76.7714 53.3601 77.6321 52.3063 78.6113 51.3271L80.9062 49.0332L81.4365 49.5635L86.0264 44.9736L85.4961 44.4434L90.0859 39.8535L90.6162 40.3838L95.2051 35.7949L94.6748 35.2646L99.2646 30.6748L99.7949 31.2051L104.384 26.6162L103.854 26.0859L108.443 21.4961L108.974 22.0264L113.563 17.4365L113.033 16.9062L115.327 14.6113C116.306 13.6321 117.36 12.7714 118.47 12.0283L118.887 12.6514C121.109 11.1629 123.564 10.1685 126.098 9.66699L125.952 8.93066Z" stroke="#D7FF94" stroke-opacity="0.5" stroke-width="1.5" stroke-dasharray="7 7"/>
<path d="M51.3887 14.6729C58.9063 7.15533 71.0937 7.15532 78.6113 14.6729L115.327 51.3887C122.845 58.9063 122.845 71.0937 115.327 78.6113L78.6113 115.327C71.0937 122.845 58.9063 122.845 51.3887 115.327L14.6729 78.6113C7.15533 71.0937 7.15532 58.9063 14.6729 51.3887L51.3887 14.6729Z" fill="black" stroke="#D7FF94" stroke-width="1.5"/>
<path d="M64.5 57.5C62.6555 57.5 60.8866 58.2375 59.5824 59.5503C58.2782 60.863 57.5455 62.6435 57.5455 64.5C57.5455 66.3565 58.2782 68.137 59.5824 69.4497C60.8866 70.7625 62.6555 71.5 64.5 71.5C66.3445 71.5 68.1134 70.7625 69.4176 69.4497C70.7218 68.137 71.4545 66.3565 71.4545 64.5C71.4545 62.6435 70.7218 60.863 69.4176 59.5503C68.1134 58.2375 66.3445 57.5 64.5 57.5ZM64.5 76.1667C61.4259 76.1667 58.4777 74.9375 56.304 72.7496C54.1303 70.5617 52.9091 67.5942 52.9091 64.5C52.9091 61.4058 54.1303 58.4383 56.304 56.2504C58.4777 54.0625 61.4259 52.8333 64.5 52.8333C67.5741 52.8333 70.5223 54.0625 72.696 56.2504C74.8697 58.4383 76.0909 61.4058 76.0909 64.5C76.0909 67.5942 74.8697 70.5617 72.696 72.7496C70.5223 74.9375 67.5741 76.1667 64.5 76.1667ZM64.5 47C52.9091 47 43.0105 54.2567 39 64.5C43.0105 74.7433 52.9091 82 64.5 82C76.0909 82 85.9895 74.7433 90 64.5C85.9895 54.2567 76.0909 47 64.5 47Z" fill="#D7FF94"/>
</svg>
