<svg width="186" height="131" viewBox="0 0 186 131" fill="none" xmlns="http://www.w3.org/2000/svg">
<path d="M94.4189 100L93.876 100.517L89.6064 96.0215L90.1504 95.5049V95.5039L85.8809 91.0098L85.3379 91.5264L81.0693 87.0322L81.6123 86.5146L77.3428 82.0205L76.7998 82.5371L74.665 80.29C73.7439 79.3202 72.9348 78.2825 72.2363 77.1943L72.8672 76.7891V76.7881C71.4719 74.6139 70.5392 72.2302 70.0693 69.7754V69.7764L69.332 69.917C68.837 67.3308 68.837 64.6692 69.332 62.083L70.0693 62.2236C70.5393 59.7689 71.4718 57.385 72.8672 55.2109L72.2363 54.8057C72.9348 53.7175 73.7439 52.6798 74.665 51.71L76.7998 49.4629L77.3428 49.9785L81.6123 45.4844L81.0693 44.9678L85.3379 40.4736L85.8809 40.9893L90.1504 36.4951L89.6064 35.9785L93.876 31.4834L94.4189 31.999L98.6875 27.5049L98.1445 26.9893L102.414 22.4941L102.957 23.0098L107.227 18.5156L106.683 18L108.817 15.752C109.804 14.7135 110.872 13.7995 112.001 13.0107L112.431 13.626V13.627C114.699 12.0431 117.223 10.9832 119.834 10.4492L119.684 9.71484C122.439 9.15136 125.287 9.15136 128.042 9.71484L127.892 10.4492H127.891C130.502 10.9831 133.026 12.0431 135.294 13.627L135.295 13.626L135.725 13.0107C136.854 13.7995 137.922 14.7135 138.908 15.752L141.043 18L140.498 18.5156L144.768 23.0098L145.312 22.4941L149.581 26.9893L149.037 27.5049L153.306 31.999L153.85 31.4834L158.118 35.9785L157.574 36.4951L161.844 40.9893L162.388 40.4736L166.656 44.9678L166.112 45.4834L170.382 49.9785L170.926 49.4629L173.06 51.71C173.981 52.6798 174.791 53.7174 175.489 54.8057L174.858 55.2109H174.857C176.253 57.3851 177.185 59.7688 177.655 62.2236L178.394 62.083C178.889 64.6691 178.889 67.3309 178.394 69.917L177.656 69.7764L177.655 69.7754C177.185 72.2302 176.253 74.6139 174.857 76.7881L174.858 76.7891L175.489 77.1943C174.791 78.2826 173.981 79.3202 173.06 80.29L170.926 82.5371L170.382 82.0205L166.112 86.5156L166.656 87.0322L162.388 91.5264L161.844 91.0098L157.574 95.5039L158.118 96.0215L153.85 100.517L153.306 100L149.037 104.494L149.581 105.011L145.312 109.506L144.768 108.989L140.498 113.483L141.043 114L138.908 116.248C137.922 117.287 136.854 118.201 135.725 118.989L135.295 118.374L135.294 118.372C133.026 119.956 130.502 121.016 127.891 121.55L127.892 121.551L128.042 122.285C125.287 122.849 122.439 122.849 119.684 122.285L119.834 121.551V121.55C117.223 121.016 114.699 119.956 112.431 118.372V118.374L112.001 118.989C111.013 118.299 110.072 117.513 109.191 116.632L108.817 116.248L106.683 114L107.227 113.483L102.957 108.989L102.414 109.506L98.1445 105.011L98.6885 104.494H98.6875L94.4189 100Z" stroke="black" stroke-opacity="0.5" stroke-width="1.5" stroke-dasharray="7 7"/>
<path opacity="0.9" d="M48.1699 15.7852C55.7595 7.79437 68.4954 7.79434 76.085 15.7852L110.237 51.7432C117.293 59.1725 117.293 70.8275 110.237 78.2568L76.085 114.215C68.4954 122.206 55.7595 122.206 48.1699 114.215L14.0176 78.2568C6.96142 70.8275 6.96141 59.1725 14.0176 51.7432L48.1699 15.7852Z" fill="white" stroke="black" stroke-width="1.5"/>
<path d="M62.2468 40.4719C62.2468 39.5511 61.881 38.668 61.2299 38.0169C60.5788 37.3658 59.6957 37 58.7749 37C57.8542 37 56.9711 37.3658 56.32 38.0169C55.6689 38.668 55.3031 39.5511 55.3031 40.4719V43.9437C55.3031 44.8645 55.6689 45.7476 56.32 46.3987C56.9711 47.0498 57.8542 47.4156 58.7749 47.4156C59.6957 47.4156 60.5788 47.0498 61.2299 46.3987C61.881 45.7476 62.2468 44.8645 62.2468 43.9437V40.4719ZM78.4153 50.0438C79.0477 49.389 79.3977 48.512 79.3898 47.6017C79.3819 46.6914 79.0167 45.8206 78.373 45.1769C77.7293 44.5332 76.8585 44.168 75.9482 44.1601C75.0379 44.1522 74.1609 44.5022 73.5061 45.1346L71.0515 47.5892C70.419 48.244 70.0691 49.121 70.077 50.0313C70.0849 50.9416 70.4501 51.8124 71.0938 52.4561C71.7375 53.0998 72.6083 53.465 73.5186 53.4729C74.4289 53.4808 75.3059 53.1308 75.9607 52.4984L78.4153 50.0438ZM86.5499 64.7749C86.5499 65.6957 86.1841 66.5788 85.533 67.2299C84.8819 67.881 83.9988 68.2468 83.078 68.2468H79.6062C78.6854 68.2468 77.8023 67.881 77.1512 67.2299C76.5001 66.5788 76.1343 65.6957 76.1343 64.7749C76.1343 63.8542 76.5001 62.9711 77.1512 62.32C77.8023 61.6689 78.6854 61.3031 79.6062 61.3031H83.078C83.9988 61.3031 84.8819 61.6689 85.533 62.32C86.1841 62.9711 86.5499 63.8542 86.5499 64.7749ZM41.5892 52.4984C41.9095 52.83 42.2926 53.0945 42.7162 53.2765C43.1397 53.4584 43.5953 53.5542 44.0563 53.5582C44.5173 53.5622 44.9745 53.4744 45.4012 53.2998C45.8278 53.1252 46.2155 52.8674 46.5415 52.5415C46.8674 52.2155 47.1252 51.8278 47.2998 51.4012C47.4744 50.9745 47.5622 50.5173 47.5582 50.0563C47.5542 49.5953 47.4584 49.1397 47.2765 48.7162C47.0945 48.2926 46.83 47.9095 46.4984 47.5892L44.0438 45.1346C43.389 44.5022 42.512 44.1522 41.6017 44.1601C40.6914 44.168 39.8206 44.5332 39.1769 45.1769C38.5332 45.8206 38.168 46.6914 38.1601 47.6017C38.1522 48.512 38.5022 49.389 39.1346 50.0438L41.5892 52.4984ZM41.4156 64.7749C41.4156 65.6957 41.0498 66.5788 40.3987 67.2299C39.7476 67.881 38.8645 68.2468 37.9437 68.2468H34.4719C33.5511 68.2468 32.668 67.881 32.0169 67.2299C31.3658 66.5788 31 65.6957 31 64.7749C31 63.8542 31.3658 62.9711 32.0169 62.32C32.668 61.6689 33.5511 61.3031 34.4719 61.3031H37.9437C38.8645 61.3031 39.7476 61.6689 40.3987 62.32C41.0498 62.9711 41.4156 63.8542 41.4156 64.7749ZM51.8312 85.6062V82.1343H65.7187V85.6062C65.7187 87.4478 64.9871 89.2139 63.6849 90.5161C62.3827 91.8183 60.6165 92.5499 58.7749 92.5499C56.9334 92.5499 55.1672 91.8183 53.865 90.5161C52.5628 89.2139 51.8312 87.4478 51.8312 85.6062ZM65.7187 78.6624C65.7708 77.482 66.4408 76.4196 67.3748 75.6801C69.6408 73.893 71.2938 71.4443 72.1039 68.6744C72.9141 65.9045 72.8413 62.951 71.8955 60.2245C70.9497 57.4979 69.1779 55.1337 66.8265 53.4605C64.4751 51.7873 61.6609 50.8883 58.7749 50.8883C55.889 50.8883 53.0748 51.7873 50.7234 53.4605C48.372 55.1337 46.6002 57.4979 45.6544 60.2245C44.7086 62.951 44.6358 65.9045 45.4459 68.6744C46.2561 71.4443 47.9091 73.893 50.1751 75.6801C51.1125 76.4196 51.7791 77.482 51.8277 78.6624H65.7187Z" fill="black"/>
</svg>
