<svg width="151" height="151" viewBox="0 0 151 151" fill="none" xmlns="http://www.w3.org/2000/svg">
<mask id="path-1-outside-1_259_334" maskUnits="userSpaceOnUse" x="0" y="0" width="151" height="151" fill="black">
<rect fill="white" width="151" height="151"/>
<path d="M90.4004 41.2295L118.71 12.9199L139.782 33.9922L113.175 60.5996H150V90.4004H111.684L139.351 118.067L118.279 139.139L90.4004 111.26V150H60.5996V113.174L34.4229 139.351L13.3516 118.279L41.2305 90.4004H1V60.5996H39.7393L12.9199 33.7803L33.9922 12.708L60.5996 39.3154V1H90.4004V41.2295Z"/>
</mask>
<path d="M90.4004 41.2295H89.4004V43.6437L91.1075 41.9366L90.4004 41.2295ZM118.71 12.9199L119.417 12.2128L118.71 11.5057L118.003 12.2128L118.71 12.9199ZM139.782 33.9922L140.489 34.6993L141.196 33.9922L140.489 33.2851L139.782 33.9922ZM113.175 60.5996L112.468 59.8925L110.761 61.5996H113.175V60.5996ZM150 60.5996H151V59.5996H150V60.5996ZM150 90.4004V91.4004H151V90.4004H150ZM111.684 90.4004V89.4004H109.269L110.976 91.1075L111.684 90.4004ZM139.351 118.067L140.058 118.774L140.765 118.067L140.058 117.36L139.351 118.067ZM118.279 139.139L117.572 139.846L118.279 140.553L118.986 139.846L118.279 139.139ZM90.4004 111.26L91.1075 110.553L89.4004 108.846V111.26H90.4004ZM90.4004 150V151H91.4004V150H90.4004ZM60.5996 150H59.5996V151H60.5996V150ZM60.5996 113.174H61.5996V110.76L59.8925 112.467L60.5996 113.174ZM34.4229 139.351L33.7157 140.058L34.4229 140.765L35.13 140.058L34.4229 139.351ZM13.3516 118.279L12.6445 117.572L11.9373 118.279L12.6445 118.986L13.3516 118.279ZM41.2305 90.4004L41.9376 91.1075L43.6447 89.4004H41.2305V90.4004ZM1 90.4004H0V91.4004H1V90.4004ZM1 60.5996V59.5996H0V60.5996H1ZM39.7393 60.5996V61.5996H42.1535L40.4464 59.8925L39.7393 60.5996ZM12.9199 33.7803L12.2128 33.0732L11.5057 33.7803L12.2128 34.4874L12.9199 33.7803ZM33.9922 12.708L34.6993 12.0009L33.9922 11.2938L33.2851 12.0009L33.9922 12.708ZM60.5996 39.3154L59.8925 40.0225L61.5996 41.7296V39.3154H60.5996ZM60.5996 1V0H59.5996V1H60.5996ZM90.4004 1H91.4004V0H90.4004V1ZM90.4004 41.2295L91.1075 41.9366L119.417 13.627L118.71 12.9199L118.003 12.2128L89.6933 40.5224L90.4004 41.2295ZM118.71 12.9199L118.003 13.627L139.075 34.6993L139.782 33.9922L140.489 33.2851L119.417 12.2128L118.71 12.9199ZM139.782 33.9922L139.075 33.2851L112.468 59.8925L113.175 60.5996L113.882 61.3067L140.489 34.6993L139.782 33.9922ZM113.175 60.5996V61.5996H150V60.5996V59.5996H113.175V60.5996ZM150 60.5996H149V90.4004H150H151V60.5996H150ZM150 90.4004V89.4004H111.684V90.4004V91.4004H150V90.4004ZM111.684 90.4004L110.976 91.1075L138.643 118.774L139.351 118.067L140.058 117.36L112.391 89.6933L111.684 90.4004ZM139.351 118.067L138.643 117.36L117.572 138.432L118.279 139.139L118.986 139.846L140.058 118.774L139.351 118.067ZM118.279 139.139L118.986 138.432L91.1075 110.553L90.4004 111.26L89.6933 111.967L117.572 139.846L118.279 139.139ZM90.4004 111.26H89.4004V150H90.4004H91.4004V111.26H90.4004ZM90.4004 150V149H60.5996V150V151H90.4004V150ZM60.5996 150H61.5996V113.174H60.5996H59.5996V150H60.5996ZM60.5996 113.174L59.8925 112.467L33.7157 138.643L34.4229 139.351L35.13 140.058L61.3067 113.881L60.5996 113.174ZM34.4229 139.351L35.13 138.643L14.0587 117.572L13.3516 118.279L12.6445 118.986L33.7157 140.058L34.4229 139.351ZM13.3516 118.279L14.0587 118.986L41.9376 91.1075L41.2305 90.4004L40.5234 89.6933L12.6445 117.572L13.3516 118.279ZM41.2305 90.4004V89.4004H1V90.4004V91.4004H41.2305V90.4004ZM1 90.4004H2V60.5996H1H0V90.4004H1ZM1 60.5996V61.5996H39.7393V60.5996V59.5996H1V60.5996ZM39.7393 60.5996L40.4464 59.8925L13.627 33.0732L12.9199 33.7803L12.2128 34.4874L39.0322 61.3067L39.7393 60.5996ZM12.9199 33.7803L13.627 34.4874L34.6993 13.4151L33.9922 12.708L33.2851 12.0009L12.2128 33.0732L12.9199 33.7803ZM33.9922 12.708L33.2851 13.4151L59.8925 40.0225L60.5996 39.3154L61.3067 38.6083L34.6993 12.0009L33.9922 12.708ZM60.5996 39.3154H61.5996V1H60.5996H59.5996V39.3154H60.5996ZM60.5996 1V2H90.4004V1V0H60.5996V1ZM90.4004 1H89.4004V41.2295H90.4004H91.4004V1H90.4004Z" fill="#D9D9D9" mask="url(#path-1-outside-1_259_334)"/>
</svg>
