<svg width="121" height="115" viewBox="0 0 121 115" fill="none" xmlns="http://www.w3.org/2000/svg">
<mask id="path-1-outside-1_297_638" maskUnits="userSpaceOnUse" x="0" y="0" width="162" height="162" fill="black">
<rect fill="white" width="162" height="162"/>
<path d="M97 44.2002L127.4 13.7998L150.027 36.4277L121.455 65H161V97H119.854L149.564 126.71L126.938 149.337L97 119.399V161H65V121.455L36.8906 149.564L14.2627 126.938L44.2002 97H1V65H42.5996L13.7998 36.2002L36.4277 13.5723L65 42.1445V1H97V44.2002Z"/>
</mask>
<path d="M97 44.2002H96V46.6144L97.7071 44.9073L97 44.2002ZM127.4 13.7998L128.108 13.0927L127.4 12.3856L126.693 13.0927L127.4 13.7998ZM150.027 36.4277L150.734 37.1348L151.442 36.4277L150.734 35.7206L150.027 36.4277ZM121.455 65L120.748 64.2929L119.041 66H121.455V65ZM161 65H162V64H161V65ZM161 97V98H162V97H161ZM119.854 97V96H117.44L119.147 97.7071L119.854 97ZM149.564 126.71L150.272 127.417L150.979 126.71L150.272 126.003L149.564 126.71ZM126.938 149.337L126.23 150.044L126.938 150.751L127.645 150.044L126.938 149.337ZM97 119.399L97.7071 118.692L96 116.985V119.399H97ZM97 161V162H98V161H97ZM65 161H64V162H65V161ZM65 121.455H66V119.041L64.2929 120.748L65 121.455ZM36.8906 149.564L36.1835 150.272L36.8906 150.979L37.5977 150.272L36.8906 149.564ZM14.2627 126.938L13.5556 126.23L12.8485 126.938L13.5556 127.645L14.2627 126.938ZM44.2002 97L44.9073 97.7071L46.6144 96H44.2002V97ZM1 97H0V98H1V97ZM1 65V64H0V65H1ZM42.5996 65V66H45.0138L43.3067 64.2929L42.5996 65ZM13.7998 36.2002L13.0927 35.4931L12.3856 36.2002L13.0927 36.9073L13.7998 36.2002ZM36.4277 13.5723L37.1348 12.8652L36.4277 12.1581L35.7206 12.8652L36.4277 13.5723ZM65 42.1445L64.2929 42.8516L66 44.5587V42.1445H65ZM65 1V0H64V1H65ZM97 1H98V0H97V1ZM97 44.2002L97.7071 44.9073L128.107 14.5069L127.4 13.7998L126.693 13.0927L96.2929 43.4931L97 44.2002ZM127.4 13.7998L126.693 14.5069L149.32 37.1348L150.027 36.4277L150.734 35.7206L128.108 13.0927L127.4 13.7998ZM150.027 36.4277L149.32 35.7206L120.748 64.2929L121.455 65L122.162 65.7071L150.734 37.1348L150.027 36.4277ZM121.455 65V66H161V65V64H121.455V65ZM161 65H160V97H161H162V65H161ZM161 97V96H119.854V97V98H161V97ZM119.854 97L119.147 97.7071L148.857 127.417L149.564 126.71L150.272 126.003L120.562 96.2929L119.854 97ZM149.564 126.71L148.857 126.003L126.23 148.63L126.938 149.337L127.645 150.044L150.272 127.417L149.564 126.71ZM126.938 149.337L127.645 148.63L97.7071 118.692L97 119.399L96.2929 120.107L126.23 150.044L126.938 149.337ZM97 119.399H96V161H97H98V119.399H97ZM97 161V160H65V161V162H97V161ZM65 161H66V121.455H65H64V161H65ZM65 121.455L64.2929 120.748L36.1835 148.857L36.8906 149.564L37.5977 150.272L65.7071 122.162L65 121.455ZM36.8906 149.564L37.5977 148.857L14.9698 126.23L14.2627 126.938L13.5556 127.645L36.1835 150.272L36.8906 149.564ZM14.2627 126.938L14.9698 127.645L44.9073 97.7071L44.2002 97L43.4931 96.2929L13.5556 126.23L14.2627 126.938ZM44.2002 97V96H1V97V98H44.2002V97ZM1 97H2V65H1H0V97H1ZM1 65V66H42.5996V65V64H1V65ZM42.5996 65L43.3067 64.2929L14.5069 35.4931L13.7998 36.2002L13.0927 36.9073L41.8925 65.7071L42.5996 65ZM13.7998 36.2002L14.5069 36.9073L37.1348 14.2794L36.4277 13.5723L35.7206 12.8652L13.0927 35.4931L13.7998 36.2002ZM36.4277 13.5723L35.7206 14.2794L64.2929 42.8516L65 42.1445L65.7071 41.4374L37.1348 12.8652L36.4277 13.5723ZM65 42.1445H66V1H65H64V42.1445H65ZM65 1V2H97V1V0H65V1ZM97 1H96V44.2002H97H98V1H97Z" fill="white" mask="url(#path-1-outside-1_297_638)"/>
</svg>
